<?xml version="1.0" encoding="UTF-8"?>
<svg width="188px" height="40px" viewBox="0 0 188 40" version="1.1" xmlns="http://www.w3.org/2000/svg" xmlns:xlink="http://www.w3.org/1999/xlink">
    <!-- Generator: Sketch 3.8.1 (29687) - http://www.bohemiancoding.com/sketch -->
    <title>Group</title>
    <desc>Created with Sketch.</desc>
    <defs></defs>
    <g id="Page-1" stroke="none" stroke-width="1" fill="none" fill-rule="evenodd">
        <g id="Desktop-HD" transform="translate(-250.000000, -11.000000)">
            <g id="Group" transform="translate(250.000000, 11.000000)">
                <text id="eggcellent" font-family="Roboto-Regular, Roboto" font-size="30" font-weight="normal" fill="#404040">
                    <tspan x="51" y="30">eggcellent</tspan>
                </text>
                <g id="logo-egg">
                    <g id="svg2">
                        <g id="layer1" transform="translate(0.033036, 0.016140)">
                            <g id="g9466" transform="translate(0.003508, 0.011944)">
                                <path d="M19.2863261,0.0356975 C16.4485395,0.0504043627 13.547197,1.55648672 11.9712613,4.2850848 C11.6716721,4.78928578 11.4644078,5.35132598 11.2477192,5.90579559 C9.13299564,5.71455441 6.96600557,6.58867304 5.42158526,8.21584461 C4.52774078,9.19183088 3.96160903,10.6638417 4.27282717,12.0776706 C4.38477404,12.6911 4.69041075,13.2357985 4.86138008,13.8239941 C4.93206949,14.3676828 4.52189801,14.772898 4.13378829,14.9897417 C3.14414035,15.6498735 1.90614596,16.0088402 1.25041896,17.1634549 C0.994158488,17.6543926 0.964779654,18.2497887 0.746748164,18.7632676 C0.306572786,20.2939412 0.701894168,22.0203873 1.56208289,23.2661456 C2.65621508,24.9614975 4.33968462,26.1166931 6.15052695,26.5461142 C7.07388462,26.8949348 7.59075201,27.913298 7.95128289,28.8714819 C8.51067857,30.3607897 8.88403019,32.0585985 10.0206674,33.1361877 C10.4435123,33.5380828 10.9854492,33.7258069 11.3952134,34.1445848 C14.1794687,36.3864529 17.9239745,37.1887475 21.1896739,35.9394966 C23.1268259,36.4756951 24.4095961,38.409801 26.1910238,39.3004034 C26.918768,39.667377 27.7373261,39.8375431 28.531606,39.7285377 C31.2418108,39.9610196 33.9740976,38.5423397 35.6396894,36.1302181 C36.844813,34.434174 37.5315006,32.2703049 37.5409158,30.0893127 C37.7380009,28.3546186 37.1509175,26.6851255 36.8106242,25.0295701 C36.6259853,24.0990103 36.5579944,22.9781848 37.1615961,22.2201338 C37.4602765,21.7843309 37.9078022,21.5599892 38.288806,21.244148 C39.2892963,20.170499 39.8149801,18.5976338 39.883505,17.0455475 C40.007067,13.9199088 38.5978488,10.8526152 36.4029568,9.02773186 C34.1555702,7.16994608 31.3412402,6.27479461 28.5654838,6.35309951 C27.6303473,3.59925539 25.426946,1.60562348 23.0039287,0.682143578 C21.8108644,0.218513186 20.5477335,0.00545191176 19.2863261,0.0356975 L19.2863261,0.0356975 Z" id="path4234" fill="#000000"></path>
                                <path d="M18.9909728,0.214728873 C18.9908315,0.19827201 19.0658371,0.181150441 19.2129188,0.163427402 C19.3623927,0.145416127 19.5915205,0.134095539 19.8871041,0.139044069 C20.1866436,0.144058284 20.5694298,0.178792598 21.0077922,0.24622299 C21.45114,0.314420049 21.9857551,0.441413676 22.5442052,0.645254363 C23.1080432,0.851062206 23.7538229,1.14660191 24.3955883,1.53450828 C25.0412704,1.9247823 25.7583158,2.48725338 26.3733724,3.17073431 C26.9916829,3.85783186 27.6185641,4.79174853 28.0432048,5.80491176 C28.4690544,6.82095931 29.5346695,6.15534706 30.6291408,6.35122304 C31.7245443,6.5472652 32.9508916,6.91126422 34.0578821,7.48830294 C35.1636708,8.0647152 36.368403,8.93124363 37.2855473,10.0060833 C38.2017305,11.0797966 38.9975659,12.6626294 39.369365,14.207224 C39.7406259,15.7495853 39.770359,17.8192255 39.1646013,19.3704407 C38.5622691,20.9128853 36.7340786,21.5008534 36.5043991,23.2571779 C36.2760367,25.0034314 37.1495348,26.5922113 37.3508622,28.4228657 C37.5503659,30.2369358 37.2469076,32.4682368 36.517867,34.1765931 C35.796695,35.8665113 34.4481641,37.5997 32.9710112,38.573252 C31.5156151,39.5324647 29.555286,39.7935358 27.8287663,39.8887402 C26.1290143,39.9824691 24.3555218,38.5143348 22.9453542,37.3580515 C21.5351546,36.2017422 20.1742268,36.4801059 18.477451,36.6285005 C16.753076,36.7793093 14.8045037,36.4131029 13.2432272,35.6972456 C11.6610536,34.9718064 9.842146,33.9330466 8.8490479,32.4335779 C7.84465568,30.9170559 7.68602587,28.8812623 6.68027857,27.4544368 C5.6648289,26.0138456 3.84612695,26.1179539 2.60324704,25.0560456 C1.35278181,23.9876559 0.156506695,22.1351716 0.0243079914,20.4542176 C-0.108594816,18.7643701 0.707916199,16.550576 1.9234276,15.7423554 C3.14239866,14.9318343 4.78536021,14.6823147 4.22857793,13.3259088 C3.67132177,11.968348 3.6665438,9.97254608 4.36555935,8.84066912 C5.06381679,7.7100201 6.25470104,6.85305686 7.28334683,6.38673725 C8.31091486,5.92090588 9.49340734,5.67010441 10.482432,5.72686716 C11.4700263,5.78354755 11.3407382,4.51735686 11.8621581,3.73330343 C12.3806294,2.95368284 13.0517784,2.30162054 13.6561987,1.83407005 C14.2571525,1.36920044 14.8990052,1.02897054 15.4509508,0.784636716 C15.9978963,0.542516127 16.5322544,0.401844069 16.9720099,0.306470049 C17.4070194,0.212125931 17.7947464,0.171662696 18.0943788,0.160445049 C18.3895978,0.149392598 18.618543,0.153509265 18.7682108,0.168260735 C18.9155585,0.182784265 18.9908359,0.19827201 18.9909728,0.214728873 C18.9911093,0.231186225 18.9160989,0.248281814 18.7690125,0.265954853 C18.6195335,0.283914657 18.4008739,0.311611716 18.1076765,0.354432794 C17.8105546,0.397826912 17.4568683,0.464567108 17.0283749,0.589319069 C16.5950086,0.715489657 16.1186644,0.867518578 15.5824734,1.13756368 C15.0411093,1.41021368 14.4850251,1.73021319 13.8992039,2.2189877 C13.3098078,2.71074456 12.7601387,3.266075 12.2615823,4.06245049 C11.7603883,4.86303922 11.451432,6.39914216 10.4631456,6.36910637 C9.47204579,6.33898529 8.54391054,6.56384755 7.52333905,7.05337304 C6.50189844,7.54331471 5.61977404,8.14985294 4.93739563,9.29494559 C4.25575719,10.4387951 4.33911659,11.6126407 4.91246906,12.9597882 C5.48522068,14.305524 3.54843106,15.7037412 2.33951918,16.5292848 C1.1323559,17.3536343 0.728044924,18.6709907 0.875319611,20.3594225 C1.02176151,22.0383074 1.87747728,23.1820039 3.13482458,24.2389539 C4.38496151,25.2898431 6.37695287,25.3562373 7.40010665,26.7898196 C8.41399089,28.2104147 8.59801335,30.2669779 9.60889935,31.7792127 C10.6088747,33.275127 12.0231413,33.9537142 13.6088035,34.6746417 C15.1711114,35.3849505 16.6780117,35.6692113 18.4012773,35.5156623 C20.0978259,35.3644936 22.1134328,35.2936103 23.5236004,36.4498936 C24.9338,37.6062029 26.0819438,38.864777 27.7818501,38.7738284 C29.5094069,38.6814005 31.0276527,38.5714377 32.4862652,37.6165647 C33.9644017,36.6489108 34.9321901,35.3895426 35.6592734,33.7049672 C36.3946259,32.0012338 36.6199413,30.3701005 36.4302479,28.5556186 C36.2387244,26.7236319 35.3786017,24.8538897 35.6189473,23.1097137 C35.8607598,21.3548926 37.767476,20.5128392 38.3830959,18.9765662 C39.0019728,17.4321647 38.9442514,15.9950309 38.5889369,14.4479328 C38.2326112,12.8964314 37.6414579,11.6869333 36.7374855,10.5973985 C35.8327434,9.50693627 34.8545097,8.80054412 33.7562924,8.20272059 C32.659267,7.60554559 31.6230337,7.25830392 30.5288942,7.06226765 C29.4359011,6.86643725 27.9340449,7.10272059 27.53006,6.07668873 C27.1266592,5.05214118 26.6251132,4.27405343 26.0243611,3.56687598 C25.4270056,2.8636975 24.8278592,2.36577544 24.1949093,1.94965779 C23.5655888,1.53592691 22.9902786,1.24284407 22.4351672,1.00791711 C21.8850851,0.775118578 21.4052575,0.631807304 20.9662043,0.53234848 C20.5318894,0.433963186 20.1739387,0.370474461 19.8759477,0.333205343 C19.5823456,0.296485245 19.3634177,0.275821029 19.2137464,0.261120539 C19.0663952,0.24664799 18.9911136,0.231185735 18.9909728,0.214728873 L18.9909728,0.214728873" id="path9394" fill="#000000"></path>
                                <path d="M19.0364043,0.0420435784 C15.6229421,0.00892838235 12.1605235,2.21157593 11.095232,5.93358775 C7.80413387,5.37615098 2.47279045,8.59017647 4.5884816,12.9044549 C5.77331832,15.5688985 1.05232609,15.0792539 0.869031922,17.9600157 C-0.690072138,21.5181235 2.69053387,25.2557103 5.72078009,25.9176588 C8.5369762,26.7932191 7.78234596,31.8964681 10.6930272,33.1766029 C13.5479179,35.7688642 17.5221153,36.6533172 20.827835,35.3387324 C23.5107391,35.9777784 25.1560393,39.5902882 28.1602981,39.1249819 C32.873111,39.5744152 36.9627806,35.0614206 36.9196812,29.7675093 C37.409695,26.4338848 34.2653702,22.7573941 37.7057464,20.8169162 C40.6244549,17.6175779 39.2014994,11.6394961 35.9262544,9.00244853 C33.6522168,7.07769853 30.7699819,6.24484216 28.0415844,6.35791373 C26.7430531,2.23118132 22.6411257,-0.0733309314 19.0364043,0.0420435784 L19.0364043,0.0420435784 Z" id="path2160" fill="#FFFFFA"></path>
                                <path d="M28.3646086,19.5700391 C28.3652069,22.0728633 27.0007065,24.3858187 24.7852417,25.6373998 C22.5697768,26.8889809 19.8400388,26.8889809 17.624574,25.6373998 C15.4091091,24.3858187 14.0446087,22.0728633 14.045207,19.5700391 C14.0446087,17.0672149 15.4091091,14.7542595 17.624574,13.5026784 C19.8400388,12.2510973 22.5697768,12.2510973 24.7852417,13.5026784 C27.0007065,14.7542595 28.3652069,17.0672149 28.3646086,19.5700391 L28.3646086,19.5700391 Z" id="path5223" fill="#C0C0C0"></path>
                                <path d="M28.0190363,19.1778822 C28.0196346,21.6807065 26.6551341,23.9936619 24.4396693,25.245243 C22.2242045,26.4968241 19.4944665,26.4968241 17.2790016,25.245243 C15.0635368,23.9936619 13.6990364,21.6807065 13.6996346,19.1778822 C13.6990364,16.675058 15.0635368,14.3621026 17.2790016,13.1105215 C19.4944665,11.8589404 22.2242045,11.8589404 24.4396693,13.1105215 C26.6551341,14.3621026 28.0196346,16.675058 28.0190363,19.1778822 L28.0190363,19.1778822 Z" id="path2199" fill="#FFBA00"></path>
                                <path d="M20.6416177,12.6383324 C18.2533944,12.6682319 15.8436743,14.0877157 14.6615961,16.4909672 C13.5575482,18.6967833 14.0091184,21.6685681 15.5741231,23.4394966 C14.6261443,21.5014147 14.5630242,18.9912113 15.5592743,17.0562245 C16.807527,14.4981529 19.3406233,12.9593971 21.8860825,12.8427088 C22.0946946,12.8313132 22.3037672,12.828099 22.512568,12.8344108 C21.8993158,12.6848632 21.2703443,12.62 20.6416177,12.6383324 L20.6416177,12.6383324 Z" id="path2236" fill="#F5F5F5" opacity="0.64220186"></path>
                                <path d="M36.3827084,9.54090588 C37.4959369,11.5600069 38.5292441,13.7526466 38.7154955,16.1661039 C38.8459205,17.7447794 38.3876333,19.3817387 37.3991771,20.5044475 C36.8326933,21.1885917 35.9747287,21.6897637 35.8238531,22.6950113 C35.6013728,24.1685926 36.2411227,25.5594534 36.4094281,26.9928652 C36.8495024,30.1455922 36.1146911,33.594325 34.1324384,35.911923 C32.742524,37.5674475 30.7088134,38.4479794 28.6977732,38.3552441 C26.1425849,38.2615662 23.7616959,36.9457554 21.7076022,35.3101137 C17.8966562,35.335423 14.5915287,35.5543868 13.1969633,34.7752809 C15.5687045,35.9645 18.3585482,36.2219064 20.8225032,35.2379034 C22.4699361,35.6248039 23.6893559,37.0635235 25.0584644,38.0626583 C25.9692531,38.7580525 27.0597875,39.2202858 28.1672657,39.0262 C30.8170432,39.3075123 33.4905222,37.8574181 35.0935616,35.4906608 C36.2331292,33.8558201 36.856765,31.7854799 36.8417469,29.703899 C37.1134315,27.5960603 36.0515603,25.6568936 35.9875801,23.5758446 C35.945327,22.6177412 36.358632,21.6798123 37.0567382,21.1438985 C37.3626255,20.8836255 37.7431387,20.7417598 37.9607322,20.3681118 C39.2329149,18.7164451 39.4512419,16.3284706 38.9610022,14.2651706 C38.5402808,12.4427422 37.638168,10.7530794 36.3719093,9.52099167 L36.3827084,9.54090588 L36.3827084,9.54090588 Z" id="path3240" fill="#808080" opacity="0.52293581"></path>
                            </g>
                        </g>
                    </g>
                </g>
            </g>
        </g>
    </g>
</svg>